<svg width="96" height="56" viewBox="0 0 96 56" fill="none" xmlns="http://www.w3.org/2000/svg">
<g clip-path="url(#clip0_0_111)">
<path d="M57.7421 7.7704H54.843C54.5092 7.7704 54.4034 7.85961 54.4034 8.09059C54.4034 8.26833 54.4914 8.39281 54.6491 8.41079L54.8778 8.42877C55.3174 8.46473 55.4225 8.73167 55.4225 9.87068V13.0747C54.7549 14.3209 53.9993 14.926 53.1037 14.926C52.5944 14.926 52.12 14.6943 51.8913 14.3389C51.6456 13.9654 51.5753 13.5201 51.5753 12.7012V9.87137C51.5753 8.75035 51.6811 8.426 52.0886 8.4101C52.4695 8.39972 52.6579 8.35685 52.6661 8.0816C52.6716 7.90387 52.561 7.77939 52.3849 7.76141L52.1562 7.74343C51.6817 7.70747 51.5766 7.40526 51.5766 6.28354V2.93707C51.5766 1.83333 51.4537 1.37068 51.0674 0.854772C50.6455 0.302905 49.9957 0 49.2052 0C48.4147 0 47.7116 0.284924 47.0617 0.854772C46.6399 1.22822 46.4119 1.49585 45.9552 2.18949C45.8146 1.44191 45.7094 1.12172 45.3756 0.74758C44.9715 0.266943 44.3387 0 43.654 0C42.6001 0 41.4403 0.76556 40.5617 2.06501V0.409405C40.5617 0.195712 40.3686 0.0352697 40.1399 0.0352697C40.0518 0.0352697 39.9112 0.071231 39.7358 0.195712C39.2613 0.515906 38.8047 0.76556 38.3828 0.890041C38.0142 0.996542 37.9084 1.08575 37.9084 1.29945C37.9084 1.38866 38.049 1.53112 38.2244 1.58437L38.5405 1.67358C38.892 1.78008 38.9801 2.04703 38.9801 2.81259V6.28354C38.9801 7.38727 38.8572 7.70747 38.3302 7.74343L38.0845 7.76141C37.9261 7.77939 37.821 7.90387 37.821 8.0816C37.821 8.31328 37.9616 8.4018 38.2599 8.4018H41.159C41.4928 8.4018 41.5986 8.31259 41.5986 8.0816C41.5986 7.90387 41.5106 7.77939 41.3529 7.76141L41.1242 7.74343C40.6846 7.70747 40.5795 7.44053 40.5795 6.30152V3.09751C41.2471 1.85131 42.0028 1.2462 42.8984 1.2462C43.4076 1.2462 43.882 1.47787 44.1107 1.83333C44.3565 2.20678 44.4268 2.65214 44.4268 3.47095V6.30083C44.4268 7.42185 44.3387 7.70678 43.9346 7.76072L43.7755 7.7704C43.4766 7.7704 43.3359 7.85961 43.3359 8.09059C43.3359 8.26833 43.4411 8.39281 43.6172 8.41079L43.8459 8.42877C44.3203 8.46473 44.4254 8.76694 44.4254 9.88866V13.2351C44.4254 14.3389 44.5483 14.8015 44.9347 15.3174C45.3565 15.8693 46.0064 16.1722 46.7969 16.1722C47.5873 16.1722 48.2904 15.8873 48.9403 15.3174C49.3622 14.944 49.5902 14.6763 50.0469 13.9827C50.1875 14.7303 50.2926 15.0505 50.6264 15.4246C51.0305 15.9053 51.6633 16.1722 52.348 16.1722C53.402 16.1722 54.5617 15.4066 55.4403 14.1072V15.7628C55.4403 15.9765 55.6335 16.1362 55.8622 16.1362C55.9502 16.1362 56.0908 16.1003 56.2663 15.9758C56.7407 15.6556 57.1974 15.4059 57.6192 15.2815C57.9879 15.175 58.0937 15.0858 58.0937 14.8721C58.0937 14.7828 57.953 14.6404 57.7776 14.5871L57.4616 14.4979C57.11 14.3914 57.0219 14.1245 57.0219 13.3589V9.88797C57.0219 8.78423 57.1448 8.46404 57.6718 8.42808L57.9175 8.4101C58.0759 8.39212 58.181 8.26763 58.181 8.0899C58.181 7.85823 58.0404 7.7704 57.7421 7.7704ZM49.9936 13.0035C49.2734 14.3382 48.4829 14.9433 47.5867 14.9433C46.5149 14.9433 46.0405 14.3202 46.0405 12.9142V9.87068C46.0405 9.37206 46.0753 8.87414 46.1286 8.69571C46.1989 8.53527 46.3395 8.42877 46.4972 8.42877L46.7955 8.39281C46.9716 8.39281 47.059 8.26833 47.059 8.09059C47.059 7.8852 46.9614 7.79253 46.7067 7.77386L46.5859 7.76003C46.1292 7.70678 46.0064 7.43983 46.0064 6.30014V3.16736C46.7265 1.83264 47.517 1.22752 48.4133 1.22752C49.485 1.22752 49.9595 1.85062 49.9595 3.25657V6.30014C49.9595 6.79875 49.9247 7.29668 49.8714 7.4751C49.8011 7.63555 49.7021 7.72822 49.4769 7.74343C49.2721 7.75726 48.9424 7.71577 48.9403 8.08022C48.9396 8.28561 49.0379 8.37828 49.2925 8.39696L49.4134 8.41079C49.87 8.46404 49.9929 8.73098 49.9929 9.87068L49.9936 13.0035Z" fill="white"/>
<path d="M48.0003 20.7759C48.688 20.7759 49.2454 20.2111 49.2454 19.5145C49.2454 18.8178 48.688 18.2531 48.0003 18.2531C47.3127 18.2531 46.7552 18.8178 46.7552 19.5145C46.7552 20.2111 47.3127 20.7759 48.0003 20.7759Z" fill="white"/>
<path d="M5.62417 38.4399L8.97383 30.9841C9.07554 30.7608 9.20046 30.5505 9.25643 30.4848C9.33562 30.3929 9.4148 30.3666 9.61823 30.3666H10.6367C10.8743 30.3666 10.9651 30.4454 10.9651 30.6556C10.9651 30.787 10.8859 30.9184 10.75 30.9447L10.7159 30.9579C10.4558 31.0236 10.4333 31.0367 10.3425 31.1024C10.1616 31.2338 10.0933 31.536 10.0933 32.0754V38.1501C10.0933 38.9392 10.195 39.1757 10.6702 39.2677L10.7377 39.2808C10.862 39.3071 10.9412 39.4254 10.9412 39.5699C10.9412 39.767 10.8504 39.8458 10.6128 39.8458H8.40588C8.17925 39.8458 8.07754 39.767 8.07754 39.5699C8.07754 39.3859 8.14512 39.3202 8.34922 39.2677L8.47346 39.2151C8.77928 39.1363 8.90351 38.8341 8.90351 38.137V32.2331L5.6897 39.3334C5.48628 39.7801 5.44054 39.8465 5.20299 39.8465C4.96544 39.8465 4.9313 39.8202 4.67122 39.2808L1.3557 32.3776L1.31065 38.137C1.31065 38.518 1.34478 38.6501 1.41236 38.8472C1.50315 39.0969 1.62738 39.1363 2.01239 39.2545L2.05744 39.2677C2.19328 39.3071 2.28407 39.4254 2.28407 39.5699C2.28407 39.767 2.17076 39.8458 1.95573 39.8458H0.328344C0.101712 39.8458 0 39.767 0 39.5699C0 39.4254 0.0907895 39.294 0.215028 39.2677L0.282608 39.2545C0.757717 39.1626 0.905165 38.9129 0.905165 38.137V32.0754C0.905165 31.3126 0.746795 31.0236 0.328344 30.9579L0.237554 30.9447C0.135843 30.9316 0.0341314 30.787 0.0341314 30.6294C0.0341314 30.4454 0.135843 30.3666 0.362475 30.3666H1.3243C1.58438 30.3666 1.66356 30.3797 1.73183 30.4586C1.79941 30.5243 1.84514 30.6162 1.98099 30.8922L5.62485 38.4399H5.62417Z" fill="white"/>
<path d="M19.1347 36.7172H15.966L15.4567 38.1764C15.3209 38.5574 15.2984 38.6764 15.2984 38.8735C15.2984 39.0837 15.4117 39.2282 15.6042 39.2545L15.7625 39.2939L15.8417 39.3202C15.955 39.3596 16.0342 39.4648 16.0342 39.6093C16.0342 39.8064 15.9325 39.8852 15.695 39.8852H14.258C14.0314 39.8852 14.0314 39.6881 14.0314 39.491C14.0314 39.3334 14.099 39.3334 14.2464 39.3071L14.314 39.2939C14.5406 39.2545 14.699 38.9523 14.97 38.1764L17.5838 30.6549C17.708 30.3002 17.7422 30.2607 17.9121 30.2607C18.093 30.2607 18.1388 30.3002 18.2514 30.6418L20.8877 38.1764C21.0345 38.5968 21.0802 38.6764 21.1935 38.8866C21.2611 38.9917 21.3294 39.0837 21.4086 39.1625C21.4652 39.202 21.5219 39.2414 21.6011 39.2545C21.6127 39.2677 21.6461 39.2808 21.7144 39.2939L21.771 39.3202C21.9069 39.3596 21.9745 39.4516 21.9745 39.6093C21.9745 39.7932 21.8727 39.8852 21.6461 39.8852H19.519C19.2815 39.8852 19.1907 39.8064 19.1907 39.6093C19.1907 39.4648 19.2815 39.3334 19.4057 39.3071H19.4508C19.7225 39.2414 19.8126 39.1363 19.8126 38.9129C19.8126 38.7289 19.7784 38.5187 19.6542 38.1764L19.1334 36.7172H19.1347ZM16.1243 36.1909H18.9531L17.5162 32.128L16.1243 36.1909Z" fill="white"/>
<path d="M30.2124 36.1252C30.4841 36.4405 30.6991 36.7434 31.1859 37.5187C31.6159 38.1895 31.7627 38.3997 31.9777 38.6362C32.2945 38.991 32.5545 39.1494 32.8262 39.2019C33.132 39.2545 33.188 39.3202 33.188 39.5304C33.188 39.7407 33.0522 39.8458 32.7921 39.8458H32.3504C32.1695 39.8458 31.9654 39.8064 31.7961 39.7275C31.4343 39.5567 30.9019 39.0567 30.4609 38.4786L29.9175 37.7683L29.3175 36.9793L28.7291 36.2033C28.2874 35.6113 27.8014 35.3091 27.2696 35.3091C27.1679 35.3091 27.043 35.3223 26.8846 35.3354V38.1362C26.8846 38.5173 26.8962 38.6494 26.9638 38.8465C27.043 39.0961 27.1563 39.1618 27.5297 39.2538L27.5864 39.2669C27.7106 39.2932 27.8014 39.4246 27.8014 39.556C27.8014 39.7663 27.6881 39.8451 27.4621 39.8451H25.12C24.8934 39.8451 24.7917 39.7663 24.7917 39.5692C24.7917 39.3983 24.8709 39.2801 25.0067 39.2669L25.131 39.2538C25.561 39.1618 25.6969 38.8728 25.6969 38.1362V32.0747C25.6969 31.2856 25.561 31.036 25.12 30.9571L25.0408 30.944C24.9275 30.9309 24.8374 30.7863 24.8374 30.6286C24.8374 30.4447 24.9282 30.3658 25.1658 30.3658H28.5721C29.4547 30.3658 30.0206 30.5104 30.5183 30.8389C31.1183 31.2331 31.4801 32.009 31.4801 32.8638C31.4801 33.7185 31.1183 34.4813 30.4732 34.9149C30.0882 35.1646 29.8056 35.2434 29.0472 35.3091C29.6472 35.5851 29.8848 35.7559 30.2124 36.1245V36.1252ZM26.8969 33.982C26.8969 34.3499 26.9085 34.4551 26.9877 34.5871C27.1351 34.7842 27.5311 34.8762 28.312 34.8762C29.4663 34.8762 30.2472 34.0609 30.2472 32.8776C30.2472 31.5629 29.4213 30.8396 27.9161 30.8396C27.656 30.8396 27.4744 30.8658 27.2935 30.9053C26.9768 30.9841 26.8976 31.1812 26.8976 31.7863V33.982H26.8969Z" fill="white"/>
<path d="M37.8838 35.1522L35.7567 32.0754C35.2134 31.2864 34.9758 31.063 34.5116 30.9579L34.455 30.9447C34.3191 30.9184 34.2399 30.8002 34.2399 30.6556C34.2399 30.4586 34.3416 30.3666 34.5683 30.3666H37.0578C37.2844 30.3666 37.3971 30.4454 37.3971 30.6556C37.3971 30.787 37.3063 30.9053 37.1705 30.9447L37.1254 30.9579C36.8988 31.0236 36.8196 31.0761 36.8196 31.2075C36.8196 31.3783 36.9438 31.6411 37.238 32.0754L38.9466 34.5734L40.5536 32.0754C40.7911 31.7075 40.9044 31.444 40.9044 31.2864C40.9044 31.0761 40.8594 31.0498 40.486 30.9579L40.4293 30.9447C40.3051 30.9184 40.2143 30.787 40.2143 30.6556C40.2143 30.4454 40.316 30.3666 40.5536 30.3666H42.1379C42.3755 30.3666 42.4663 30.4454 42.4663 30.6556C42.4663 30.787 42.3871 30.9184 42.2629 30.9447L42.2062 30.9579C41.8669 31.0367 41.5952 31.2732 41.301 31.7469L41.0976 32.0754L39.0723 35.2705V38.137C39.0723 38.8341 39.2306 39.1231 39.6491 39.2151L39.819 39.2545L39.8641 39.2677C39.9883 39.3071 40.0675 39.4254 40.0675 39.5568C40.0675 39.767 39.9767 39.8458 39.7392 39.8458H37.3063C37.0797 39.8458 36.978 39.767 36.978 39.5568C36.978 39.4254 37.0571 39.294 37.1814 39.2677L37.238 39.2545C37.4756 39.202 37.5322 39.1757 37.623 39.1231C37.8039 38.9655 37.8831 38.6895 37.8831 38.137L37.8838 35.1522Z" fill="white"/>
<path d="M47.3553 35.1653V37.9661C47.3553 38.7289 47.3894 38.8603 47.4911 39.0311C47.6495 39.2939 47.9662 39.3464 49.2448 39.3464C50.2291 39.3464 50.9083 39.2413 51.4626 38.9917C51.9268 38.7814 52.4019 38.3471 52.7303 37.8741C52.8211 37.7427 52.8777 37.6901 52.9337 37.6901C53.0354 37.6901 53.0805 37.7427 53.0805 37.861C53.0805 37.9004 53.0688 37.9529 53.0579 38.0186C52.9337 38.4128 52.7521 38.834 52.5487 39.1888C52.2319 39.715 51.9828 39.8464 51.2244 39.8464H45.6227C45.3961 39.8464 45.2944 39.7676 45.2944 39.5705C45.2944 39.426 45.3961 39.2814 45.5094 39.2683H45.6002C45.9961 39.2026 46.1661 38.8741 46.1661 38.1376V32.076C46.1661 31.3132 46.0303 31.0242 45.6002 30.9585L45.5094 30.9453C45.3961 30.9322 45.306 30.8008 45.306 30.6563C45.306 30.4592 45.4077 30.3672 45.6344 30.3672H51.8695C52.0169 30.3672 52.0845 30.4854 52.1637 30.7745L52.3671 31.5373C52.3896 31.6424 52.4012 31.7344 52.4012 31.7738C52.4012 31.8921 52.3337 31.9446 52.2429 31.9446C52.1862 31.9446 52.1296 31.9052 52.0504 31.8001C51.5295 31.1162 50.7827 30.8271 49.3007 30.8534L48.599 30.8665C47.8973 30.8796 47.6713 30.9059 47.5129 31.0767C47.3996 31.2344 47.3546 31.4052 47.3546 32.0103V34.6666H49.3123C50.2175 34.6666 50.4667 34.5484 50.6025 33.9433C50.6817 33.6016 50.6933 33.5622 50.8059 33.5622C50.9868 33.5622 51.0776 33.6542 51.0776 33.8513V33.917C51.0776 34.39 51.0326 34.7323 51.0326 34.9294C51.0326 35.1659 51.0442 35.5214 51.0892 35.9682V36.0601C51.0892 36.2441 51.01 36.3492 50.8291 36.3492C50.6933 36.3492 50.6483 36.2704 50.5916 35.9944C50.4674 35.3368 50.1957 35.1659 49.3014 35.1659H47.3553V35.1653Z" fill="white"/>
<path d="M56.3509 39.8464C56.1243 39.8464 56.0226 39.7413 56.0226 39.5574C56.0226 39.426 56.1243 39.2814 56.2376 39.2683L56.3509 39.2552C56.7694 39.2026 56.9168 38.9267 56.9168 38.1376L56.8943 32.076C56.8943 31.3264 56.7359 31.0373 56.3175 30.9585L56.2499 30.9453C56.1257 30.9191 56.0349 30.7877 56.0349 30.6563C56.0349 30.446 56.1257 30.3672 56.3632 30.3672H58.6603C58.8869 30.3672 58.9886 30.446 58.9886 30.6563C58.9886 30.7877 58.8978 30.9191 58.7736 30.9453L58.706 30.9585C58.2309 31.0505 58.0834 31.3001 58.0834 32.076L58.095 37.7828C58.095 38.5719 58.1401 38.8215 58.2985 39.0318C58.4568 39.2552 58.7736 39.334 59.4303 39.334C60.0528 39.334 60.6296 39.2814 61.0597 39.1632C61.8181 38.9661 62.5082 38.4792 62.9724 37.8617C63.0632 37.7171 63.1308 37.6777 63.199 37.6777C63.3008 37.6777 63.3574 37.7434 63.3574 37.8617C63.3574 37.9142 63.3458 37.9931 63.3124 38.085C63.1315 38.6113 62.9274 39.0055 62.7014 39.3471C62.4523 39.7282 62.1922 39.8471 61.6263 39.8471H56.353L56.3509 39.8464Z" fill="white"/>
<path d="M66.4668 39.8464C66.2402 39.8464 66.1385 39.7413 66.1385 39.5574C66.1385 39.426 66.2402 39.2814 66.3535 39.2683L66.4668 39.2552C66.8853 39.2026 67.0327 38.9267 67.0327 38.1376L67.0102 32.076C67.0102 31.3264 66.8518 31.0373 66.4334 30.9585L66.3658 30.9453C66.2415 30.9191 66.1507 30.7877 66.1507 30.6563C66.1507 30.446 66.2415 30.3672 66.4791 30.3672H68.7761C69.0028 30.3672 69.1045 30.446 69.1045 30.6563C69.1045 30.7877 69.0137 30.9191 68.8894 30.9453L68.8219 30.9585C68.3468 31.0505 68.1993 31.3001 68.1993 32.076L68.2109 37.7828C68.2109 38.5719 68.256 38.8215 68.4143 39.0318C68.5727 39.2552 68.8894 39.334 69.5461 39.334C70.1687 39.334 70.7455 39.2814 71.1756 39.1632C71.934 38.9661 72.6241 38.4792 73.0883 37.8617C73.1791 37.7171 73.2467 37.6777 73.3149 37.6777C73.4166 37.6777 73.4733 37.7434 73.4733 37.8617C73.4733 37.9142 73.4617 37.9931 73.4282 38.085C73.2473 38.6113 73.0432 39.0055 72.8173 39.3471C72.5681 39.7282 72.308 39.8471 71.7421 39.8471H66.4688L66.4668 39.8464Z" fill="white"/>
<path d="M78.3138 35.1653V37.9661C78.3138 38.7289 78.3479 38.8603 78.4497 39.0311C78.608 39.2939 78.9248 39.3464 80.2033 39.3464C81.1877 39.3464 81.8669 39.2413 82.4212 38.9917C82.8854 38.7814 83.3605 38.3471 83.6888 37.8741C83.7796 37.7427 83.8363 37.6901 83.8922 37.6901C83.994 37.6901 84.039 37.7427 84.039 37.861C84.039 37.9004 84.0274 37.9529 84.0165 38.0186C83.8922 38.4128 83.7107 38.834 83.5072 39.1888C83.1905 39.715 82.9413 39.8464 82.1829 39.8464H76.5813C76.3547 39.8464 76.253 39.7676 76.253 39.5705C76.253 39.426 76.3547 39.2814 76.468 39.2683H76.5588C76.9547 39.2026 77.1247 38.8741 77.1247 38.1376V32.076C77.1247 31.3132 76.9888 31.0242 76.5588 30.9585L76.468 30.9453C76.3547 30.9322 76.2646 30.8008 76.2646 30.6563C76.2646 30.4592 76.3663 30.3672 76.5929 30.3672H82.828C82.9755 30.3672 83.0431 30.4854 83.1222 30.7745L83.3257 31.5373C83.3482 31.6424 83.3598 31.7344 83.3598 31.7738C83.3598 31.8921 83.2922 31.9446 83.2014 31.9446C83.1448 31.9446 83.0881 31.9052 83.0089 31.8001C82.4881 31.1162 81.7413 30.8271 80.2593 30.8534L79.5576 30.8665C78.8558 30.8796 78.6299 30.9059 78.4715 31.0767C78.3582 31.2344 78.3131 31.4052 78.3131 32.0103V34.6666H80.2709C81.1761 34.6666 81.4252 34.5484 81.5611 33.9433C81.6403 33.6016 81.6519 33.5622 81.7645 33.5622C81.9454 33.5622 82.0362 33.6542 82.0362 33.8513V33.917C82.0362 34.39 81.9911 34.7323 81.9911 34.9294C81.9911 35.1659 82.0027 35.5214 82.0478 35.9682V36.0601C82.0478 36.2441 81.9686 36.3492 81.7877 36.3492C81.6519 36.3492 81.6068 36.2704 81.5502 35.9944C81.4259 35.3368 81.1542 35.1659 80.26 35.1659H78.3138V35.1653Z" fill="white"/>
<path d="M87.8979 31.6417L87.6603 31.3658C87.4453 31.1162 87.2869 30.9716 87.1627 30.9191C87.0043 30.8402 86.9818 30.8271 86.9818 30.6694C86.9818 30.4329 87.061 30.3672 87.3668 30.3672H88.0344C88.1703 30.3672 88.2611 30.3672 88.3061 30.3803C88.3737 30.3803 88.4194 30.3935 88.487 30.4066C88.5662 30.446 88.657 30.538 88.8488 30.7614L94.6764 37.8485V32.076C94.6764 31.3789 94.518 31.0505 94.0764 30.9848L93.9064 30.9585L93.8497 30.9453C93.7139 30.9191 93.6347 30.7877 93.6347 30.6563C93.6347 30.446 93.7364 30.3672 93.963 30.3672H95.6717C95.8983 30.3672 96 30.446 96 30.6563C96 30.7877 95.9092 30.9191 95.785 30.9453L95.7283 30.9585C95.5925 30.9848 95.4682 31.0373 95.3665 31.103C95.2082 31.2213 95.1174 31.576 95.1174 32.076V39.5186C95.1174 39.8471 95.0607 39.9917 94.959 39.9917C94.8682 39.9917 94.8006 39.9391 94.6081 39.7026L88.328 32.1155V38.1376C88.328 38.861 88.4754 39.1106 88.8823 39.2157L89.0406 39.2552L89.1082 39.2683C89.2324 39.2946 89.3116 39.426 89.3116 39.5574C89.3116 39.7676 89.2099 39.8464 88.9833 39.8464H87.3197C87.0931 39.8464 86.9914 39.7676 86.9914 39.5574C86.9914 39.426 87.0706 39.2946 87.1948 39.2683L87.2624 39.2552C87.4433 39.2157 87.5341 39.1763 87.6242 39.1238C87.8051 38.9924 87.8959 38.6507 87.8959 38.1376V31.6417H87.8979Z" fill="white"/>
<path d="M20.8659 54.4086L24.2155 46.9529C24.3172 46.7295 24.4422 46.5193 24.4981 46.4536C24.5773 46.3616 24.6565 46.3353 24.8599 46.3353H25.8784C26.116 46.3353 26.2068 46.4142 26.2068 46.6244C26.2068 46.7558 26.1276 46.8872 25.9917 46.9135L25.9576 46.9266C25.6975 46.9923 25.675 47.0055 25.5842 47.0712C25.4033 47.2025 25.335 47.5048 25.335 48.0442V54.1189C25.335 54.9079 25.4367 55.1445 25.9119 55.2364L25.9794 55.2496C26.1037 55.2759 26.1829 55.3941 26.1829 55.5386C26.1829 55.7357 26.0921 55.8146 25.8545 55.8146H23.6476C23.4209 55.8146 23.3192 55.7357 23.3192 55.5386C23.3192 55.3547 23.3868 55.289 23.5909 55.2364L23.7152 55.1839C24.021 55.105 24.1452 54.8028 24.1452 54.1057V48.2019L20.9314 55.3021C20.728 55.7489 20.6822 55.8153 20.4447 55.8153C20.2071 55.8153 20.173 55.789 19.9129 55.2496L16.5974 48.3464L16.5523 54.1057C16.5523 54.4868 16.5865 54.6189 16.6541 54.816C16.7448 55.0656 16.8691 55.105 17.2541 55.2233L17.2991 55.2364C17.435 55.2759 17.5258 55.3941 17.5258 55.5386C17.5258 55.7357 17.4125 55.8146 17.1974 55.8146H15.568C15.3414 55.8146 15.2397 55.7357 15.2397 55.5386C15.2397 55.3941 15.3304 55.2627 15.4547 55.2364L15.5223 55.2233C15.9974 55.1313 16.1448 54.8817 16.1448 54.1057V48.0442C16.1448 47.2814 15.9864 46.9923 15.568 46.9266L15.4772 46.9135C15.3755 46.9003 15.2738 46.7558 15.2738 46.5981C15.2738 46.4142 15.3755 46.3353 15.6021 46.3353H16.564C16.824 46.3353 16.9032 46.3485 16.9715 46.4273C17.0391 46.493 17.0848 46.585 17.2206 46.8609L20.8645 54.4086H20.8659Z" fill="white"/>
<path d="M37.8961 46.9274L37.7602 46.9537C37.3984 47.0194 37.251 47.361 37.251 48.045V52.1867C37.251 53.37 37.1377 53.962 36.7759 54.5795C36.2325 55.5131 35.214 55.9993 33.8563 55.9993C32.8945 55.9993 32.046 55.7759 31.3783 55.3416C31.0616 55.1314 30.7899 54.8285 30.6199 54.4737C30.4049 54.027 30.3373 53.5927 30.3373 52.5802V48.0436C30.3373 47.2808 30.2015 47.0048 29.7605 46.926L29.6813 46.9129C29.5571 46.8866 29.4663 46.7552 29.4663 46.5975C29.4663 46.4136 29.568 46.3347 29.7947 46.3347H32.0917C32.3292 46.3347 32.4084 46.4136 32.4084 46.6238C32.4084 46.7552 32.3176 46.8997 32.205 46.9129L32.0917 46.926C31.6842 46.9786 31.5374 47.2676 31.5374 48.0436V52.5802C31.5374 53.2379 31.5941 53.5664 31.7299 53.9474C32.0692 54.8679 32.9975 55.4461 34.1628 55.4461C35.9165 55.4461 36.8223 54.3416 36.8223 52.1985V48.0436C36.8223 47.2676 36.6755 47.018 36.2114 46.926L36.1438 46.9129C36.0195 46.8866 35.9404 46.7552 35.9404 46.5975C35.9404 46.4136 36.0311 46.3347 36.2687 46.3347H37.8189C38.0565 46.3347 38.1473 46.4136 38.1473 46.6238C38.1473 46.7552 38.0797 46.8734 37.9439 46.9129L37.8988 46.926L37.8961 46.9274Z" fill="white"/>
<path d="M41.7311 55.816C41.5045 55.816 41.4027 55.7109 41.4027 55.527C41.4027 55.3956 41.5044 55.251 41.6178 55.2379L41.7311 55.2248C42.1495 55.1722 42.297 54.8963 42.297 54.1072L42.2745 48.0456C42.2745 47.296 42.1161 47.0069 41.6976 46.9281L41.6301 46.9149C41.5058 46.8887 41.415 46.7573 41.415 46.6259C41.415 46.4156 41.5058 46.3368 41.7434 46.3368H44.0404C44.267 46.3368 44.3688 46.4156 44.3688 46.6259C44.3688 46.7573 44.278 46.8887 44.1537 46.9149L44.0862 46.9281C43.611 47.0201 43.4636 47.2697 43.4636 48.0456L43.4752 53.7524C43.4752 54.5415 43.5202 54.7911 43.6786 55.0014C43.837 55.2248 44.1537 55.3036 44.8104 55.3036C45.433 55.3036 46.0098 55.251 46.4398 55.1328C47.1982 54.9357 47.8884 54.4488 48.3526 53.8313C48.4434 53.6867 48.5109 53.6473 48.5792 53.6473C48.6809 53.6473 48.7376 53.713 48.7376 53.8313C48.7376 53.8838 48.726 53.9627 48.6925 54.0546C48.5116 54.5809 48.3075 54.9751 48.0816 55.3167C47.8324 55.6978 47.5723 55.8167 47.0064 55.8167H41.7331L41.7311 55.816Z" fill="white"/>
<path d="M51.8469 55.816C51.6203 55.816 51.5186 55.7109 51.5186 55.527C51.5186 55.3956 51.6203 55.251 51.7336 55.2379L51.8469 55.2248C52.2654 55.1722 52.4128 54.8963 52.4128 54.1072L52.3903 48.0456C52.3903 47.296 52.2319 47.0069 51.8135 46.9281L51.7459 46.9149C51.6217 46.8887 51.5309 46.7573 51.5309 46.6259C51.5309 46.4156 51.6217 46.3368 51.8592 46.3368H54.1563C54.3829 46.3368 54.4846 46.4156 54.4846 46.6259C54.4846 46.7573 54.3938 46.8887 54.2696 46.9149L54.202 46.9281C53.7269 47.0201 53.5794 47.2697 53.5794 48.0456L53.591 53.7524C53.591 54.5415 53.6361 54.7911 53.7945 55.0014C53.9528 55.2248 54.2696 55.3036 54.9263 55.3036C55.5488 55.3036 56.1256 55.251 56.5557 55.1328C57.3141 54.9357 58.0042 54.4488 58.4684 53.8313C58.5592 53.6867 58.6268 53.6473 58.6951 53.6473C58.7968 53.6473 58.8534 53.713 58.8534 53.8313C58.8534 53.8838 58.8418 53.9627 58.8084 54.0546C58.6275 54.5809 58.4234 54.9751 58.1974 55.3167C57.9483 55.6978 57.6882 55.8167 57.1223 55.8167H51.849L51.8469 55.816Z" fill="white"/>
<path d="M63.6946 51.1349V53.9357C63.6946 54.6985 63.7288 54.8299 63.8305 55.0007C63.9889 55.2635 64.3056 55.316 65.5842 55.316C66.5685 55.316 67.2477 55.2109 67.802 54.9613C68.2662 54.751 68.7413 54.3167 69.0697 53.8437C69.1604 53.7123 69.2171 53.6597 69.2731 53.6597C69.3748 53.6597 69.4198 53.7123 69.4198 53.8306C69.4198 53.87 69.4082 53.9225 69.3973 53.9882C69.2731 54.3824 69.0915 54.8036 68.8881 55.1584C68.5713 55.6846 68.3222 55.816 67.5638 55.816H61.9621C61.7355 55.816 61.6338 55.7372 61.6338 55.5401C61.6338 55.3956 61.7355 55.251 61.8488 55.2379H61.9396C62.3355 55.1722 62.5055 54.8437 62.5055 54.1072V48.0456C62.5055 47.2828 62.3697 46.9938 61.9396 46.9281L61.8488 46.9149C61.7355 46.9018 61.6454 46.7704 61.6454 46.6259C61.6454 46.4288 61.7471 46.3368 61.9737 46.3368H68.2089C68.3563 46.3368 68.4239 46.455 68.5031 46.7441L68.7065 47.5069C68.729 47.612 68.7406 47.704 68.7406 47.7434C68.7406 47.8617 68.673 47.9142 68.5823 47.9142C68.5256 47.9142 68.4689 47.8748 68.3898 47.7697C67.8689 47.0858 67.1221 46.7967 65.6401 46.823L64.9384 46.8361C64.2366 46.8492 64.0107 46.8755 63.8523 47.0463C63.739 47.204 63.694 47.3748 63.694 47.9799V50.6362H65.6517C66.5569 50.6362 66.8061 50.518 66.9419 49.9129C67.0211 49.5712 67.0327 49.5318 67.1453 49.5318C67.3262 49.5318 67.417 49.6238 67.417 49.8209V49.8866C67.417 50.3596 67.372 50.7019 67.372 50.899C67.372 51.1355 67.3836 51.491 67.4286 51.9378V52.0297C67.4286 52.2137 67.3494 52.3188 67.1685 52.3188C67.0327 52.3188 66.9876 52.24 66.931 51.964C66.8067 51.3064 66.5351 51.1355 65.6408 51.1355H63.6946V51.1349Z" fill="white"/>
<path d="M77.782 52.0948C78.0537 52.4101 78.2687 52.713 78.7554 53.4883C79.1855 54.1591 79.3323 54.3693 79.5473 54.6058C79.864 54.9606 80.1241 55.119 80.3958 55.1716C80.7016 55.2241 80.7576 55.2898 80.7576 55.5C80.7576 55.7103 80.6217 55.8154 80.3617 55.8154H79.92C79.7391 55.8154 79.535 55.776 79.3657 55.6971C79.0039 55.5263 78.4715 55.0263 78.0305 54.4482L77.4871 53.7379L76.8871 52.9489L76.2987 52.1729C75.857 51.581 75.371 51.2787 74.8392 51.2787C74.7375 51.2787 74.6126 51.2919 74.4542 51.305V54.1058C74.4542 54.4869 74.4658 54.619 74.5334 54.8161C74.6126 55.0657 74.7259 55.1314 75.0993 55.2234L75.1559 55.2366C75.2802 55.2628 75.371 55.3942 75.371 55.5256C75.371 55.7359 75.2577 55.8147 75.0317 55.8147H72.6896C72.463 55.8147 72.3613 55.7359 72.3613 55.5388C72.3613 55.368 72.4404 55.2497 72.5763 55.2366L72.7005 55.2234C73.1306 55.1314 73.2664 54.8424 73.2664 54.1058V48.0443C73.2664 47.2552 73.1306 47.0056 72.6896 46.9267L72.6104 46.9136C72.4971 46.9005 72.407 46.7559 72.407 46.5982C72.407 46.4143 72.4978 46.3354 72.7353 46.3354H76.1417C77.0243 46.3354 77.5902 46.48 78.0878 46.8085C78.6879 47.2027 79.0497 47.9786 79.0497 48.8334C79.0497 49.6881 78.6879 50.4509 78.0428 50.8845C77.6578 51.1342 77.3752 51.213 76.6168 51.2787C77.2168 51.5547 77.4543 51.7255 77.782 52.0941V52.0948ZM74.4665 49.9516C74.4665 50.3195 74.4781 50.4247 74.5573 50.5567C74.7047 50.7538 75.1006 50.8458 75.8816 50.8458C77.0359 50.8458 77.8168 50.0305 77.8168 48.8472C77.8168 47.5325 76.9909 46.8092 75.4857 46.8092C75.2256 46.8092 75.044 46.8354 74.8631 46.8749C74.5464 46.9537 74.4672 47.1508 74.4672 47.7559V49.9516H74.4665Z" fill="white"/>
</g>
<defs>
<clipPath id="clip0_0_111">
<rect width="96" height="56" fill="white"/>
</clipPath>
</defs>
</svg>
