<svg width="553" height="612" viewBox="0 0 553 612" fill="none" xmlns="http://www.w3.org/2000/svg">
<mask id="mask0_0_30" style="mask-type:alpha" maskUnits="userSpaceOnUse" x="0" y="0" width="553" height="612">
<rect width="553" height="612" rx="10" fill="url(#paint0_linear_0_30)"/>
</mask>
<g mask="url(#mask0_0_30)">
<g opacity="0.5" filter="url(#filter0_df_0_30)">
<ellipse cx="279" cy="443" rx="343" ry="344" fill="url(#paint1_linear_0_30)" fill-opacity="0.6" style="mix-blend-mode:plus-lighter" shape-rendering="crispEdges"/>
<path d="M621.5 443C621.5 632.711 468.156 786.5 279 786.5C89.8438 786.5 -63.5 632.711 -63.5 443C-63.5 253.289 89.8438 99.5 279 99.5C468.156 99.5 621.5 253.289 621.5 443Z" stroke="#399079" stroke-opacity="0.82" style="mix-blend-mode:luminosity" shape-rendering="crispEdges"/>
<path d="M621.5 443C621.5 632.711 468.156 786.5 279 786.5C89.8438 786.5 -63.5 632.711 -63.5 443C-63.5 253.289 89.8438 99.5 279 99.5C468.156 99.5 621.5 253.289 621.5 443Z" stroke="#DD7833" style="mix-blend-mode:saturation" shape-rendering="crispEdges"/>
</g>
</g>
<defs>
<filter id="filter0_df_0_30" x="-259.4" y="16.6" width="1012.8" height="1014.8" filterUnits="userSpaceOnUse" color-interpolation-filters="sRGB">
<feFlood flood-opacity="0" result="BackgroundImageFix"/>
<feColorMatrix in="SourceAlpha" type="matrix" values="0 0 0 0 0 0 0 0 0 0 0 0 0 0 0 0 0 0 127 0" result="hardAlpha"/>
<feMorphology radius="95" operator="dilate" in="SourceAlpha" result="effect1_dropShadow_0_30"/>
<feOffset dx="-32" dy="81"/>
<feGaussianBlur stdDeviation="34.2"/>
<feComposite in2="hardAlpha" operator="out"/>
<feColorMatrix type="matrix" values="0 0 0 0 0.223887 0 0 0 0 0.566309 0 0 0 0 0.475668 0 0 0 0.45 0"/>
<feBlend mode="normal" in2="BackgroundImageFix" result="effect1_dropShadow_0_30"/>
<feBlend mode="normal" in="SourceGraphic" in2="effect1_dropShadow_0_30" result="shape"/>
<feGaussianBlur stdDeviation="1" result="effect2_foregroundBlur_0_30"/>
</filter>
<linearGradient id="paint0_linear_0_30" x1="-78.4104" y1="-54.7009" x2="256.083" y2="743.663" gradientUnits="userSpaceOnUse">
<stop stop-color="#2A4C43"/>
<stop offset="1" stop-color="#13231E"/>
</linearGradient>
<linearGradient id="paint1_linear_0_30" x1="279" y1="99" x2="279" y2="787" gradientUnits="userSpaceOnUse">
<stop stop-color="#13231E"/>
<stop offset="0.501073" stop-color="#284B42"/>
</linearGradient>
</defs>
</svg>
