<svg width="49" height="6" viewBox="0 0 49 6" fill="none" xmlns="http://www.w3.org/2000/svg">
<path d="M0.835693 2.6C0.614779 2.6 0.435693 2.77909 0.435693 3C0.435693 3.22091 0.614779 3.4 0.835693 3.4V2.6ZM48.2495 3.28284C48.4057 3.12663 48.4057 2.87337 48.2495 2.71716L45.7039 0.171573C45.5477 0.0153632 45.2944 0.0153632 45.1382 0.171573C44.982 0.327783 44.982 0.581048 45.1382 0.737258L47.4009 3L45.1382 5.26274C44.982 5.41895 44.982 5.67222 45.1382 5.82843C45.2944 5.98464 45.5477 5.98464 45.7039 5.82843L48.2495 3.28284ZM0.835693 3.4H47.9666V2.6H0.835693V3.4Z" fill="white"/>
</svg>
